<?xml version="1.0" standalone="no"?>
<svg xmlns:xlink="http://www.w3.org/1999/xlink" id="wave" style="transform:rotate(180deg); transition: 0.3s" viewBox="0 0 1440 420" version="1.1" xmlns="http://www.w3.org/2000/svg" __cpp="1"><defs __cpp="1"><linearGradient id="sw-gradient-0" x1="0" x2="0" y1="1" y2="0" __cpp="1"><stop stop-color="rgba(13, 110, 253, 1)" offset="0%" __cpp="1"/><stop stop-color="rgba(13, 110, 253, 1)" offset="100%" __cpp="1"/></linearGradient></defs><path style="transform:translate(0, 0px); opacity:1" fill="url(#sw-gradient-0)" d="M0,210L80,196C160,182,320,154,480,182C640,210,800,294,960,301C1120,308,1280,238,1440,238C1600,238,1760,308,1920,301C2080,294,2240,210,2400,210C2560,210,2720,294,2880,280C3040,266,3200,154,3360,105C3520,56,3680,70,3840,84C4000,98,4160,112,4320,98C4480,84,4640,42,4800,56C4960,70,5120,140,5280,140C5440,140,5600,70,5760,98C5920,126,6080,252,6240,301C6400,350,6560,322,6720,322C6880,322,7040,350,7200,350C7360,350,7520,322,7680,259C7840,196,8000,98,8160,91C8320,84,8480,168,8640,175C8800,182,8960,112,9120,119C9280,126,9440,210,9600,245C9760,280,9920,266,10080,252C10240,238,10400,224,10560,203C10720,182,10880,154,11040,175C11200,196,11360,266,11440,301L11520,336L11520,420L11440,420C11360,420,11200,420,11040,420C10880,420,10720,420,10560,420C10400,420,10240,420,10080,420C9920,420,9760,420,9600,420C9440,420,9280,420,9120,420C8960,420,8800,420,8640,420C8480,420,8320,420,8160,420C8000,420,7840,420,7680,420C7520,420,7360,420,7200,420C7040,420,6880,420,6720,420C6560,420,6400,420,6240,420C6080,420,5920,420,5760,420C5600,420,5440,420,5280,420C5120,420,4960,420,4800,420C4640,420,4480,420,4320,420C4160,420,4000,420,3840,420C3680,420,3520,420,3360,420C3200,420,3040,420,2880,420C2720,420,2560,420,2400,420C2240,420,2080,420,1920,420C1760,420,1600,420,1440,420C1280,420,1120,420,960,420C800,420,640,420,480,420C320,420,160,420,80,420L0,420Z" __cpp="1"/></svg>